<svg id="Layer_1" data-name="Layer 1" xmlns="http://www.w3.org/2000/svg" xmlns:xlink="http://www.w3.org/1999/xlink" viewBox="0 0 256 256"><defs><style>.cls-1,.cls-2,.cls-4,.cls-5{fill:none;}.cls-1,.cls-2,.cls-3,.cls-4,.cls-5{stroke-miterlimit:10;}.cls-1{stroke-width:10px;stroke:url(#Orange_Yellow);}.cls-2,.cls-5{stroke-linecap:round;}.cls-2,.cls-4{stroke-width:7px;}.cls-2{stroke:url(#Orange_Yellow-2);}.cls-3,.cls-4,.cls-5{stroke:#231f20;}.cls-3{stroke-width:8px;fill:url(#linear-gradient);}.cls-5{stroke-width:5px;}</style><linearGradient id="Orange_Yellow" x1="38.67" y1="185.65" x2="156.64" y2="67.67" gradientUnits="userSpaceOnUse"><stop offset="0" stop-color="#fff33b"/><stop offset="0.04" stop-color="#fee72e"/><stop offset="0.12" stop-color="#fed51b"/><stop offset="0.2" stop-color="#fdca10"/><stop offset="0.28" stop-color="#fdc70c"/><stop offset="0.67" stop-color="#f3903f"/><stop offset="0.89" stop-color="#ed683c"/><stop offset="1" stop-color="#e93e3a"/></linearGradient><linearGradient id="Orange_Yellow-2" x1="105.02" y1="201.57" x2="241.73" y2="201.57" xlink:href="#Orange_Yellow"/><linearGradient id="linear-gradient" x1="42.2" y1="182.11" x2="153.11" y2="71.2" gradientUnits="userSpaceOnUse"><stop offset="0" stop-color="#fff33b"/><stop offset="0.12" stop-color="#fac73b"/><stop offset="0.26" stop-color="#f59d3b"/><stop offset="0.4" stop-color="#f07b3a"/><stop offset="0.55" stop-color="#ed603a"/><stop offset="0.69" stop-color="#eb4d3a"/><stop offset="0.84" stop-color="#e9423a"/><stop offset="1" stop-color="#e93e3a"/></linearGradient></defs><ellipse class="cls-1" cx="97.66" cy="126.66" rx="79.66" ry="77.17"/><path class="cls-2" d="M108.52,203.52c21.54-1.64,22,4.34,43.54,2.69s21.08-7.63,42.62-9.28,22,4.33,43.55,2.68"/><ellipse class="cls-3" cx="97.66" cy="126.66" rx="79.66" ry="77.17"/><path class="cls-4" d="M36.85,76.82c0,54.38,54.79,114.41,104.42,114.41"/><path class="cls-4" d="M46.71,67.33c0,55.19,55,116.1,104.89,116.1"/><path class="cls-4" d="M58,59.71C58,113.54,112.26,173,161.39,173"/><path class="cls-4" d="M68.37,54.89c0,51.14,52.38,107.59,99.84,107.59"/><path class="cls-4" d="M127,54.89c-21.17,0-83.27,95.86-83.27,128.54"/><path class="cls-4" d="M137.27,59.71C116.11,59.71,54,157.79,54,191.23"/><path class="cls-4" d="M148.59,67.33C127.09,67.33,64,163.75,64,196.62"/><path class="cls-4" d="M158.46,76.82c-21.11,0-83,92.43-83,124"/><path class="cls-5" d="M109.25,203.52c21.42-1.64,21.88,4.34,43.3,2.69s21-7.63,42.38-9.28,21.88,4.33,43.3,2.68"/></svg>